<?xml version="1.0" encoding="UTF-8"?>
<svg width="19px" height="20px" viewBox="0 0 19 20" version="1.1" xmlns="http://www.w3.org/2000/svg" xmlns:xlink="http://www.w3.org/1999/xlink">
    <!-- Generator: Sketch 52.2 (67145) - http://www.bohemiancoding.com/sketch -->
    <title>icon</title>
    <desc>Created with Sketch.</desc>
    <defs>
        <linearGradient x1="50%" y1="32.058688%" x2="50%" y2="68.5134113%" id="linearGradient-1">
            <stop stop-color="#0D67AF" offset="0%"></stop>
            <stop stop-color="#EF4158" offset="100%"></stop>
        </linearGradient>
    </defs>
    <g id="Page-1" stroke="none" stroke-width="1" fill="none" fill-rule="evenodd">
        <g id="icon">
            <path d="M7.45967136,10.2101408 L5.61929577,10.2101408 C5.60131455,10.2101408 5.58680751,10.2242254 5.5857277,10.241784 C5.53953052,11.0728638 5.3829108,11.9681221 5.15619718,12.6993897 C5.15300469,12.7093427 5.15478873,12.7205164 5.16098592,12.729108 C5.16737089,12.7375117 5.17741784,12.742723 5.18798122,12.742723 L5.81779343,12.742723 C5.83225352,12.742723 5.84525822,12.7333333 5.84967136,12.7193427 C6.02600939,12.1556338 6.16760563,11.4234742 6.2215493,10.8000939 L6.82544601,10.8000939 L6.82544601,12.7092488 C6.82544601,12.7275117 6.84051643,12.7425822 6.85901408,12.7425822 L7.45957746,12.7425822 C7.47812207,12.7425822 7.49305164,12.7275117 7.49305164,12.7092488 L7.49305164,10.2437559 C7.49309859,10.2252582 7.47835681,10.2101408 7.45967136,10.2101408" id="Fill-2" fill="#EF3E58"></path>
            <path d="M15.2428169,10.2101408 L14.6422535,10.2101408 C14.6238498,10.2101408 14.6086385,10.2251643 14.6086385,10.2437559 L14.6086385,12.1512676 C14.4768545,12.1883568 14.3453052,12.2060563 14.1968545,12.2060563 C13.7987324,12.2060563 13.7070423,12.0844131 13.7070423,11.556338 L13.7070423,10.2437559 C13.7070423,10.2252582 13.6920657,10.2101408 13.6735681,10.2101408 L13.0730986,10.2101408 C13.0544601,10.2101408 13.0395775,10.2251643 13.0395775,10.2437559 L13.0395775,11.6194836 C13.0395775,12.4799531 13.3300469,12.8153052 14.0755869,12.8153052 C14.5000469,12.8153052 14.9735211,12.7071362 15.2547418,12.6000939 C15.2678404,12.5947887 15.2765258,12.5826291 15.2765258,12.5688732 L15.2765258,10.2437559 C15.2764319,10.2252582 15.2612207,10.2101408 15.2428169,10.2101408" id="Fill-3" fill="#EF3E58"></path>
            <path d="M2.50901408,10.21277 L1.8986385,10.21277 C1.88338028,10.21277 1.8699061,10.2230047 1.86633803,10.2380282 C1.76957746,10.618169 1.57591549,11.251784 1.31544601,11.9157746 L0.702441315,10.2322066 C0.697605634,10.219108 0.685164319,10.2101408 0.671173709,10.2101408 L0.0532394366,10.2101408 C0.0423943662,10.2101408 0.0322065728,10.2155399 0.0259624413,10.224507 C0.0196713615,10.2334272 0.0180751174,10.2450235 0.0217370892,10.2552582 L0.939671362,12.7752582 C0.84370892,12.9682629 0.757605634,13.1283099 0.674319249,13.2833333 C0.61314554,13.3973709 0.553380282,13.5081221 0.493286385,13.6261502 C0.487793427,13.636385 0.488309859,13.6489671 0.494319249,13.6588732 C0.500516432,13.6687324 0.511361502,13.6746948 0.523051643,13.6746948 L1.1914554,13.6746948 C1.20399061,13.6746948 1.21530516,13.6677465 1.22122066,13.6565728 C1.33455399,13.4385446 1.47460094,13.1357746 1.60492958,12.8261972 C1.99497653,11.9086854 2.31004695,11.0437089 2.54089202,10.2555399 C2.54399061,10.2452582 2.54197183,10.2343662 2.5356338,10.2258216 C2.52943662,10.2176056 2.51948357,10.21277 2.50901408,10.21277" id="Fill-4" fill="#EF3E58"></path>
            <path d="M4.69746479,12.1529108 C4.69446009,12.144554 4.68807512,12.1376526 4.68004695,12.1340376 C4.67187793,12.1301408 4.66276995,12.1298592 4.6541784,12.1330516 C4.50765258,12.1870423 4.23305164,12.2312676 4.04206573,12.2312676 C3.62319249,12.2312676 3.42389671,12.1183568 3.42389671,11.4760094 C3.42389671,10.9624883 3.48502347,10.7208451 4.04206573,10.7208451 C4.2,10.7208451 4.34676056,10.7438967 4.53262911,10.7975587 C4.54788732,10.8017371 4.56408451,10.7950235 4.57159624,10.7812207 C4.64122066,10.6504225 4.72539906,10.4907042 4.82014085,10.2947887 C4.82431925,10.2862441 4.82446009,10.2758216 4.82056338,10.2669484 C4.81685446,10.2584507 4.80915493,10.2513146 4.80004695,10.2483568 C4.55361502,10.1700469 4.26103286,10.1248357 3.99784038,10.1248357 C3.12098592,10.1248357 2.72981221,10.5385446 2.72981221,11.4662441 C2.72981221,12.4076995 3.12098592,12.82723 3.99784038,12.82723 C4.21755869,12.82723 4.65079812,12.7811268 4.85957746,12.6975587 C4.87638498,12.690939 4.88488263,12.6723944 4.87868545,12.6550235 L4.69746479,12.1529108" id="Fill-5" fill="#EF3E58"></path>
            <path d="M10.4140376,10.21277 L9.80370892,10.21277 C9.78830986,10.21277 9.77497653,10.2230047 9.77112676,10.2380282 C9.67455399,10.6184977 9.48084507,11.2520657 9.22051643,11.9157746 L8.60737089,10.2322066 C8.60258216,10.219108 8.59023474,10.2101408 8.57600939,10.2101408 L7.95826291,10.2101408 C7.94746479,10.2101408 7.9370892,10.2155399 7.93089202,10.224507 C7.92450704,10.2334272 7.92319249,10.2450235 7.92666667,10.2552582 L8.84446009,12.7752582 C8.74882629,12.9678873 8.66309859,13.1274648 8.57976526,13.2824883 C8.51821596,13.3966197 8.45873239,13.5075117 8.39840376,13.6260563 C8.39286385,13.636385 8.39338028,13.6487324 8.39948357,13.6587324 C8.4056338,13.6685915 8.41643192,13.6746948 8.42812207,13.6746948 L9.09647887,13.6746948 C9.10877934,13.6746948 9.12046948,13.6676526 9.12624413,13.656338 C9.23953052,13.4387793 9.37938967,13.1361033 9.5099061,12.8260094 C9.89938967,11.9101408 10.2144131,11.0452113 10.4459155,10.2553991 C10.4490141,10.2452113 10.4470423,10.2342723 10.440892,10.2256808 C10.4344601,10.2176056 10.4243192,10.21277 10.4140376,10.21277" id="Fill-6" fill="#EF3E58"></path>
            <path d="M12.6683099,10.2101408 L10.8902817,10.2101408 C10.8718779,10.2101408 10.8568075,10.2251643 10.8568075,10.2437559 L10.8568075,12.7093427 C10.8568075,12.7276526 10.8718779,12.742723 10.8902817,12.742723 L11.4907512,12.742723 C11.5091549,12.742723 11.5242254,12.7276526 11.5242254,12.7093427 L11.5242254,10.8002347 L12.4525822,10.8002347 C12.4661502,10.8002347 12.4783099,10.7923005 12.4833803,10.7800469 C12.5539906,10.6133803 12.6265728,10.4370423 12.6992958,10.2562441 C12.7032864,10.2460094 12.7020188,10.2341784 12.6961033,10.2252582 C12.6899061,10.2159155 12.6792019,10.2101408 12.6683099,10.2101408" id="Fill-7" fill="#EF3E58"></path>
            <path d="M3.22061033,8.53342723 C2.82521127,8.53342723 2.70197183,8.4258216 2.70197183,7.75323944 C2.70197183,7.03666667 2.83629108,6.97267606 3.22061033,6.97267606 C3.61201878,6.97267606 3.74892019,7.03666667 3.74892019,7.75323944 C3.74892019,8.4258216 3.62338028,8.53342723 3.22061033,8.53342723 M3.22061033,6.41671362 C2.35314554,6.41671362 2.01507042,6.7886385 2.01507042,7.74323944 C2.01507042,8.71187793 2.35314554,9.08901408 3.22061033,9.08901408 C4.09530516,9.08901408 4.43591549,8.71178404 4.43591549,7.74323944 C4.43591549,6.78877934 4.09530516,6.41671362 3.22061033,6.41671362" id="Fill-8" fill="#0F67B1" fill-rule="nonzero"></path>
            <path d="M6.83225352,8.43187793 C6.82920188,8.42352113 6.82305164,8.41657277 6.81483568,8.41305164 C6.80661972,8.40910798 6.79746479,8.40887324 6.78910798,8.41206573 C6.64253521,8.46605634 6.36769953,8.51028169 6.17680751,8.51028169 C5.75793427,8.51028169 5.5585446,8.39737089 5.5585446,7.75502347 C5.5585446,7.2414554 5.61962441,6.99985915 6.17680751,6.99985915 C6.33455399,6.99985915 6.4814554,7.02286385 6.66751174,7.07657277 C6.68258216,7.08075117 6.69882629,7.07403756 6.70638498,7.06018779 C6.77610329,6.92938967 6.86,6.76967136 6.95474178,6.57375587 C6.95910798,6.56521127 6.95929577,6.55483568 6.95530516,6.54600939 C6.95150235,6.53737089 6.94399061,6.53032864 6.93492958,6.52732394 C6.68826291,6.44906103 6.39600939,6.40375587 6.13258216,6.40375587 C5.25568075,6.40375587 4.86478873,6.81755869 4.86478873,7.74525822 C4.86478873,8.68666667 5.25568075,9.10624413 6.13258216,9.10624413 C6.35239437,9.10624413 6.78549296,9.06014085 6.99446009,8.97657277 C7.01126761,8.96995305 7.01967136,8.9513615 7.01347418,8.93399061 L6.83225352,8.43187793" id="Fill-9" fill="#0F67B1"></path>
            <path d="M1.83117371,6.48906103 L0.0532394366,6.48906103 C0.034741784,6.48906103 0.0197652582,6.50413146 0.0197652582,6.52276995 L0.0197652582,8.98830986 C0.0197652582,9.00666667 0.034741784,9.02169014 0.0532394366,9.02169014 L0.653615023,9.02169014 C0.672253521,9.02169014 0.687276995,9.00666667 0.687276995,8.98830986 L0.687276995,7.07924883 L1.6157277,7.07924883 C1.62920188,7.07924883 1.64107981,7.07126761 1.64643192,7.05906103 C1.71699531,6.89234742 1.78971831,6.71600939 1.86220657,6.53525822 C1.86643192,6.52497653 1.86511737,6.51314554 1.85887324,6.5042723 C1.85267606,6.49492958 1.84244131,6.48906103 1.83117371,6.48906103" id="Fill-10" fill="#0F67B1"></path>
            <path d="M18.0497653,12.4857746 C18.0506103,12.4734742 18.0515493,12.4610798 18.0524883,12.4485446 C18.0540376,12.4265258 18.0555869,12.4041315 18.0571362,12.3813146 C18.0810329,12.0370423 18.1055399,11.6077934 18.1218779,11.1271831 C18.1223474,11.1142254 18.12277,11.1012207 18.1231455,11.088216 C18.1339906,10.7584038 18.1407981,10.4052113 18.1407981,10.0392488 C18.1407981,9.67323944 18.1339906,9.3200939 18.1231455,8.99023474 C18.12277,8.97723005 18.1223474,8.96422535 18.1218779,8.95131455 C18.1055399,8.47070423 18.0810329,8.0414554 18.0571362,7.6971831 C18.0555869,7.6743662 18.0540376,7.65197183 18.0524883,7.62995305 C18.0515493,7.61741784 18.0506103,7.60497653 18.0497653,7.59276995 C18.04723,7.55760563 18.0446948,7.52352113 18.0422066,7.49046948 C18.0411268,7.47629108 18.0400939,7.46234742 18.0390141,7.44859155 C18.0111268,7.08469484 17.9877465,6.86037559 17.9853521,6.83737089 C17.9815962,6.80215962 17.97723,6.76661972 17.9722535,6.73089202 C17.9709859,6.72215962 17.9693897,6.71333333 17.9680751,6.70455399 C17.9587324,6.64164319 17.9477465,6.57807512 17.934507,6.51384977 C17.9326291,6.50478873 17.9304225,6.49553991 17.9284507,6.48647887 C17.7659624,5.72553991 17.3430986,4.89028169 16.8165728,4.25821596 C16.6135681,4.01446009 16.3951643,3.80089202 16.1704225,3.63347418 C16.1481221,3.61685446 15.8887324,3.42413146 15.4713146,3.13661972 C14.9919249,2.80619718 14.3041315,2.35070423 13.5277465,1.89314554 C12.1448357,1.07901408 10.9076056,0.509577465 10.7450235,0.435539906 C10.7448826,0.435492958 10.7447418,0.435399061 10.7446009,0.435352113 C10.7439906,0.435117371 10.7434742,0.434882629 10.7428638,0.434600939 C10.7361033,0.431502347 10.7313615,0.429342723 10.7290141,0.428309859 L10.7289671,0.428309859 C10.7288732,0.428262911 10.7287324,0.428169014 10.7286854,0.428169014 C10.3650704,0.2642723 9.91896714,0.154741784 9.43793427,0.108028169 C9.34610329,0.0990610329 9.25319249,0.0922535211 9.15910798,0.0879812207 C9.07530516,0.0841784038 8.99070423,0.0822535211 8.9056338,0.0822535211 C8.86309859,0.0822535211 8.82065728,0.0827699531 8.77840376,0.0837089202 C8.14455399,0.098028169 7.54652582,0.219061033 7.08262911,0.428169014 C7.08211268,0.428403756 7.08126761,0.428779343 7.08051643,0.429107981 C7.00680751,0.462441315 5.75413146,1.03173709 4.33450704,1.86352113 L4.33558685,1.86352113 C4.31826291,1.87366197 4.30098592,1.88380282 4.28366197,1.89403756 C2.83140845,2.74910798 1.68892019,3.59774648 1.64098592,3.63347418 C1.28394366,3.89943662 0.966525822,4.23507042 0.677699531,4.67032864 C0.613849765,4.76647887 0.607793427,5.01286385 0.893286385,5.01286385 L1.61220657,5.01286385 C1.92234742,5.01286385 1.99553991,4.82422535 2.34220657,4.57464789 C2.72981221,4.29568075 3.4841784,3.72680751 4.87920188,2.90539906 C5.88403756,2.31361502 6.82488263,1.84873239 7.27981221,1.63169014 C7.28103286,1.63107981 7.28220657,1.63051643 7.28342723,1.62995305 C7.29164319,1.62605634 7.29971831,1.62220657 7.30760563,1.6184507 C7.31112676,1.61676056 7.31464789,1.61507042 7.31812207,1.61347418 C7.322723,1.61126761 7.32732394,1.60906103 7.33178404,1.60694836 C7.33938967,1.60333333 7.34685446,1.59981221 7.35413146,1.59638498 C7.35441315,1.59624413 7.35469484,1.59610329 7.35497653,1.59596244 C7.36309859,1.59211268 7.37098592,1.58840376 7.37868545,1.58478873 C7.37877934,1.58474178 7.37882629,1.58469484 7.37892019,1.58464789 C7.49586854,1.52953052 7.56220657,1.49943662 7.56502347,1.49816901 C7.88511737,1.35389671 8.33460094,1.267277 8.81018779,1.25699531 C8.84187793,1.25633803 8.87370892,1.25596244 8.9056338,1.25596244 C8.93755869,1.25596244 8.96934272,1.25633803 9.00107981,1.25699531 C9.14159624,1.26004695 9.27967136,1.27 9.41295775,1.28586854 C9.70070423,1.32014085 9.9656338,1.38295775 10.1805164,1.47004695 C10.2029108,1.47910798 10.2247887,1.4884507 10.2461033,1.49807512 C10.247277,1.49859155 10.2591549,1.50399061 10.2806103,1.51384977 C10.4932394,1.61169014 11.6642723,2.1585446 12.9321127,2.90535211 C13.6792488,3.34521127 14.3504225,3.79023474 14.814554,4.11004695 C15.21723,4.38769953 15.4641784,4.57112676 15.4694366,4.57502347 C15.6478404,4.70788732 15.8259155,4.8915493 15.9915962,5.10469484 C16.4150704,5.64953052 16.7576056,6.38676056 16.8180751,6.96042254 C16.8186854,6.96610329 16.8428169,7.19859155 16.8715023,7.58112676 C16.8734272,7.60633803 16.8753052,7.63215962 16.87723,7.6586385 C16.8785446,7.67657277 16.8798592,7.69474178 16.8811268,7.71323944 C16.8835211,7.74629108 16.8858685,7.78028169 16.8882629,7.81511737 C16.8891549,7.82859155 16.8900939,7.84211268 16.8909859,7.85577465 C16.8924883,7.87868545 16.8940845,7.90192488 16.8955869,7.92549296 C16.8985915,7.97126761 16.9015023,8.01821596 16.9044131,8.06643192 C16.9061972,8.09568075 16.9080282,8.12535211 16.9097653,8.15549296 C16.9101408,8.16276995 16.9105634,8.1700939 16.9110329,8.17741784 C16.9129577,8.2115493 16.9149296,8.24615023 16.9168545,8.2813615 C16.918169,8.30577465 16.9195305,8.33046948 16.9208451,8.35539906 C16.9466197,8.84474178 16.9670892,9.42633803 16.9670892,10.0392488 C16.9670892,10.6521127 16.9466197,11.2337559 16.9208451,11.7230986 C16.9195305,11.7479812 16.918169,11.772723 16.9168545,11.7971362 C16.9149296,11.8323005 16.9129577,11.8669484 16.9110329,11.9010329 C16.9105634,11.9083568 16.9101408,11.9157277 16.9097653,11.9229577 C16.9080282,11.9530986 16.9061972,11.98277 16.9044131,12.0120188 C16.9015023,12.0602817 16.8985915,12.10723 16.8955869,12.1529577 C16.8940845,12.1765258 16.8924883,12.1998122 16.8909859,12.222723 C16.8900939,12.236385 16.8891549,12.2499061 16.8882629,12.2633333 C16.8858685,12.298216 16.8835211,12.3322066 16.8811268,12.3652582 C16.8798592,12.3837089 16.8785446,12.4019249 16.87723,12.4198592 C16.8753052,12.4462911 16.8734272,12.4721596 16.8715023,12.4973239 C16.8428169,12.8799061 16.8186854,13.1123944 16.8180751,13.1180751 C16.7576056,13.6917371 16.4150704,14.4289671 15.9915962,14.9738028 C15.8259155,15.1869014 15.6478404,15.3706103 15.4694366,15.5034742 C15.4641784,15.5073709 15.21723,15.6907981 14.814554,15.9684038 C14.3504225,16.2882629 13.6792488,16.7332394 12.9321127,17.1731455 C11.6642723,17.9199531 10.4932394,18.4668075 10.2806103,18.5646009 C10.2591549,18.574507 10.247277,18.5799061 10.2461033,18.5804225 C10.2247887,18.5900469 10.2029108,18.5993427 10.1805164,18.6084038 C9.9656338,18.695493 9.70070423,18.7583568 9.41295775,18.7926291 C9.27967136,18.8084977 9.14159624,18.8184507 9.00107981,18.8214554 C8.96934272,18.8221596 8.93755869,18.8224883 8.9056338,18.8224883 C8.87370892,18.8224883 8.84187793,18.8221596 8.81018779,18.8214554 C8.33460094,18.8112207 7.88511737,18.7246009 7.56502347,18.5803286 C7.56220657,18.579061 7.4958216,18.5489671 7.37892019,18.4938028 C7.37765258,18.4931925 7.37638498,18.4926291 7.37511737,18.4920188 C7.3628169,18.4861972 7.35004695,18.4801408 7.33661972,18.4738028 C7.33525822,18.4731925 7.33380282,18.4724883 7.33244131,18.471831 C7.32225352,18.4669953 7.31159624,18.4619249 7.30079812,18.4568075 C7.29521127,18.4541315 7.28957746,18.4514554 7.28380282,18.4486854 C7.27525822,18.4446009 7.26633803,18.4403286 7.25737089,18.4360563 C7.24605634,18.4306573 7.23446009,18.4251174 7.22253521,18.4193897 C7.22,18.418169 7.21746479,18.4169484 7.21492958,18.4157277 C6.73938967,18.1873239 5.83849765,17.7380282 4.87920188,17.1730986 C3.4841784,16.3516901 2.72981221,15.7828169 2.34220657,15.5038028 C1.99553991,15.2542723 1.92234742,15.0656338 1.61220657,15.0656338 L0.893286385,15.0656338 C0.607793427,15.0656338 0.613849765,15.3119718 0.677699531,15.408169 C0.966525822,15.8433803 1.28394366,16.179061 1.64098592,16.4450235 C1.68892019,16.4807512 2.83140845,17.3293897 4.28366197,18.1844601 C4.36117371,18.2300939 4.43812207,18.2748826 4.51450704,18.3189202 L4.51347418,18.3189202 C5.85713615,19.0934272 7.0086385,19.6168545 7.08042254,19.6492958 C7.08122066,19.6496714 7.08211268,19.6500469 7.08262911,19.6503286 C7.54652582,19.8594366 8.14455399,19.9804695 8.77840376,19.9947887 C8.82065728,19.9957277 8.86309859,19.9961972 8.9056338,19.9961972 C8.99070423,19.9961972 9.07530516,19.9942723 9.15910798,19.9905164 C9.25319249,19.9862441 9.34610329,19.9793427 9.43793427,19.9704695 C9.91896714,19.9237559 10.3650704,19.8142254 10.7286854,19.6503286 C10.7287324,19.6503286 10.7288732,19.6502347 10.7289671,19.6501878 L10.7290141,19.6501878 C10.7313615,19.649108 10.7361033,19.6469953 10.7428638,19.6438967 C10.7434742,19.643615 10.7439906,19.6433803 10.7446009,19.6430986 C10.7447418,19.6430516 10.7448826,19.6429577 10.7450235,19.6429108 C10.9076056,19.5689202 12.1448357,18.9994366 13.5277465,18.1853521 C14.3041315,17.7277934 14.9919249,17.2723005 15.4713146,16.9418779 C15.8887324,16.6543662 16.1481221,16.4616432 16.1704225,16.4450235 C16.3951643,16.2775587 16.6135681,16.0640376 16.8165728,15.8202817 C17.3430986,15.188216 17.7659624,14.3529577 17.9284507,13.5920188 C17.9304225,13.5829108 17.9326291,13.5737089 17.934507,13.5646479 C17.9477465,13.5004225 17.9587324,13.4368545 17.9680751,13.3738967 C17.9693897,13.3651643 17.9709859,13.356338 17.9722535,13.3476056 C17.97723,13.3118779 17.9815962,13.276338 17.9853521,13.2411268 C17.9877465,13.2181221 18.0111268,12.9938028 18.0390141,12.6298592 C18.0400939,12.6161502 18.0411268,12.6021596 18.0422066,12.5880282 C18.0446948,12.5549765 18.04723,12.520892 18.0497653,12.4857746" id="Fill-11" fill="url(#linearGradient-1)"></path>
        </g>
    </g>
</svg>