<svg xmlns="http://www.w3.org/2000/svg" viewBox="0 0 48 46"><defs><style>.cls-1{fill:#3aad6e;}.cls-2{fill:none;stroke:#3aad6e;stroke-miterlimit:10;stroke-width:3px;}</style></defs><title>logo2Asset 1</title><g id="Layer_2" data-name="Layer 2"><g id="Layer_2-2" data-name="Layer 2"><path class="cls-1" d="M24,6A17,17,0,1,1,7,23,17,17,0,0,1,24,6m0-3A20,20,0,1,0,44,23,20,20,0,0,0,24,3Z"/><path class="cls-1" d="M24,21.5A1.5,1.5,0,1,0,25.5,23,1.5,1.5,0,0,0,24,21.5Z"/><line class="cls-2" x1="24" y1="4" x2="24"/><line class="cls-2" x1="24" y1="42" x2="24" y2="46"/><line class="cls-2" x1="43" y1="23" x2="48" y2="23"/><line class="cls-2" x1="5" y1="23" y2="23"/></g></g></svg>