<?xml version="1.0" encoding="UTF-8"?>
<svg width="28px" height="30px" viewBox="0 0 28 30" version="1.1" xmlns="http://www.w3.org/2000/svg" xmlns:xlink="http://www.w3.org/1999/xlink">
    <!-- Generator: Sketch 52.2 (67145) - http://www.bohemiancoding.com/sketch -->
    <title>gosuslugi</title>
    <desc>Created with Sketch.</desc>
    <defs>
        <linearGradient x1="50%" y1="32.058688%" x2="50%" y2="68.5134113%" id="linearGradient-1">
            <stop stop-color="#0D67AF" offset="0%"></stop>
            <stop stop-color="#EF4158" offset="100%"></stop>
        </linearGradient>
    </defs>
    <g id="Page-1" stroke="none" stroke-width="1" fill="none" fill-rule="evenodd">
        <g id="gosuslugi">
            <path d="M11.2903134,15.3152112 L8.50488005,15.3152112 C8.47766526,15.3152112 8.45570865,15.3363381 8.45407436,15.362676 C8.38415427,16.6092957 8.14710824,17.9521832 7.80397414,19.0490845 C7.79914225,19.0640141 7.80184243,19.0807746 7.8112219,19.093662 C7.82088569,19.1062676 7.83609188,19.1140845 7.85207965,19.1140845 L8.80530901,19.1140845 C8.82719449,19.1140845 8.84687728,19.1 8.85355664,19.0790141 C9.12044666,18.2334507 9.3347545,17.1352113 9.41639894,16.2001409 L10.3304048,16.2001409 L10.3304048,19.0638732 C10.3304048,19.0912676 10.3532141,19.1138733 10.3812105,19.1138733 L11.2901713,19.1138733 C11.3182388,19.1138733 11.3408349,19.0912676 11.3408349,19.0638732 L11.3408349,15.3656339 C11.340906,15.3378873 11.3185941,15.3152112 11.2903134,15.3152112" id="Fill-2" fill="#EF3E58"></path>
            <path d="M23.0702094,15.3152112 L22.1612485,15.3152112 C22.1333943,15.3152112 22.1103718,15.3377465 22.1103718,15.3656339 L22.1103718,18.2269014 C21.9109149,18.2825352 21.7118133,18.3090845 21.4871311,18.3090845 C20.884568,18.3090845 20.7457938,18.1266197 20.7457938,17.334507 L20.7457938,15.3656339 C20.7457938,15.3378873 20.7231265,15.3152112 20.6951301,15.3152112 L19.7863114,15.3152112 C19.7581018,15.3152112 19.7355768,15.3377465 19.7355768,15.3656339 L19.7355768,17.4292254 C19.7355768,18.7199297 20.1752061,19.2229578 21.303591,19.2229578 C21.9460169,19.2229578 22.6626265,19.0607043 23.0882579,18.9001408 C23.1080828,18.892183 23.1212282,18.8739437 23.1212282,18.8533098 L23.1212282,15.3656339 C23.1210861,15.3378873 23.0980638,15.3152112 23.0702094,15.3152112" id="Fill-3" fill="#EF3E58"></path>
            <path d="M3.79742672,15.319155 L2.87361503,15.319155 C2.8505215,15.319155 2.83012815,15.3345071 2.82472783,15.3570423 C2.6782794,15.9272535 2.38516939,16.877676 1.99094531,17.8736619 L1.06315442,15.3483099 C1.05583556,15.328662 1.03700546,15.3152112 1.01583048,15.3152112 L0.0805786066,15.3152112 C0.0641644461,15.3152112 0.0487450832,15.3233099 0.0392945058,15.3367605 C0.0297728715,15.3501408 0.0273569344,15.3675353 0.0328993782,15.3828873 L1.4222053,19.1628873 C1.27696485,19.4523943 1.14664637,19.6924649 1.0205913,19.925 C0.928004061,20.0960564 0.837548532,20.2621831 0.74659561,20.4392253 C0.738281944,20.4545775 0.73906357,20.4734507 0.748158863,20.4883098 C0.757538381,20.5030986 0.773952541,20.5120422 0.791645733,20.5120422 L1.80328385,20.5120422 C1.82225606,20.5120422 1.83938078,20.5016197 1.84833397,20.4848592 C2.0198655,20.1578169 2.23182845,19.7036619 2.42908261,19.2392958 C3.01942394,17.8630281 3.49628728,16.5655634 3.84567441,15.3833099 C3.85036417,15.3678873 3.84730872,15.3515493 3.83771602,15.3387324 C3.82833651,15.3264084 3.81327243,15.319155 3.79742672,15.319155" id="Fill-4" fill="#EF3E58"></path>
            <path d="M7.10967644,18.2293662 C7.10512878,18.216831 7.09546505,18.2064789 7.0833143,18.2010564 C7.07095038,18.1952112 7.05716533,18.1947888 7.0441619,18.1995774 C6.82239309,18.2805634 6.40678086,18.3469014 6.1177211,18.3469014 C5.4837508,18.3469014 5.18211394,18.1775352 5.18211394,17.2140141 C5.18211394,16.4437324 5.27463012,16.0812676 6.1177211,16.0812676 C6.35675676,16.0812676 6.57888085,16.115845 6.86019541,16.196338 C6.88328892,16.2026056 6.90780358,16.1925352 6.91917269,16.171831 C7.02455019,15.9756337 7.15195533,15.7360563 7.29534831,15.442183 C7.30167238,15.4293661 7.30188554,15.4137324 7.29598782,15.4004226 C7.29037432,15.387676 7.27872098,15.3769719 7.26493592,15.3725352 C6.89195787,15.2550703 6.44913082,15.1872535 6.05078544,15.1872535 C4.72365437,15.1872535 4.13160767,15.8078169 4.13160767,17.1993661 C4.13160767,18.6115492 4.72365437,19.240845 6.05078544,19.240845 C6.38333207,19.240845 7.0390458,19.1716902 7.35503616,19.046338 C7.38047456,19.0364085 7.39333587,19.0085916 7.38395636,18.9825352 L7.10967644,18.2293662" id="Fill-5" fill="#EF3E58"></path>
            <path d="M15.7617866,15.319155 L14.8380459,15.319155 C14.8147392,15.319155 14.7945591,15.3345071 14.7887324,15.3570423 C14.6425682,15.9277466 14.3493871,16.8780986 13.9553762,17.8736619 L13.0273722,15.3483099 C13.0201243,15.328662 13.0014364,15.3152112 12.9799061,15.3152112 L12.0449384,15.3152112 C12.0285954,15.3152112 12.0128918,15.3233099 12.0035122,15.3367605 C11.9938485,15.3501408 11.9918589,15.3675353 11.9971171,15.3828873 L13.3862099,19.1628873 C13.2414668,19.451831 13.1117168,19.6911972 12.9855906,19.9237325 C12.892435,20.0949296 12.8024058,20.2612675 12.7110976,20.4390845 C12.7027129,20.4545775 12.7034945,20.4730986 12.7127319,20.4880986 C12.7220403,20.5028873 12.7383834,20.5120422 12.7560766,20.5120422 L13.7676437,20.5120422 C13.7862606,20.5120422 13.8039538,20.5014789 13.8126938,20.484507 C13.9841543,20.158169 14.195833,19.704155 14.3933714,19.2390141 C14.98286,17.8652112 15.4596523,16.567817 15.8100343,15.3830987 C15.814724,15.3678169 15.8117397,15.3514085 15.8024311,15.3385212 C15.7926964,15.3264084 15.777348,15.319155 15.7617866,15.319155" id="Fill-6" fill="#EF3E58"></path>
            <path d="M19.1736582,15.3152112 L16.4825885,15.3152112 C16.4547341,15.3152112 16.4319249,15.3377465 16.4319249,15.3656339 L16.4319249,19.0640141 C16.4319249,19.0914789 16.4547341,19.1140845 16.4825885,19.1140845 L17.3914072,19.1140845 C17.4192615,19.1140845 17.4420709,19.0914789 17.4420709,19.0640141 L17.4420709,16.2003521 L18.8471514,16.2003521 C18.8676868,16.2003521 18.8860907,16.1884508 18.8937648,16.1700704 C19.0006344,15.9200705 19.1104886,15.6555635 19.2205558,15.3843662 C19.2265956,15.3690141 19.2246771,15.3512676 19.2157239,15.3378873 C19.2063444,15.3238733 19.1901434,15.3152112 19.1736582,15.3152112" id="Fill-7" fill="#EF3E58"></path>
            <path d="M4.87443726,12.8001409 C4.27599544,12.8001409 4.08947088,12.6387324 4.08947088,11.6298592 C4.08947088,10.555 4.29276488,10.4590141 4.87443726,10.4590141 C5.46683923,10.4590141 5.67404137,10.555 5.67404137,11.6298592 C5.67404137,12.6387324 5.48403502,12.8001409 4.87443726,12.8001409 M4.87443726,9.6250704 C3.56151757,9.6250704 3.04983631,10.1829577 3.04983631,11.6148592 C3.04983631,13.0678169 3.56151757,13.6335211 4.87443726,13.6335211 C6.1982997,13.6335211 6.71381804,13.0676761 6.71381804,11.6148592 C6.71381804,10.183169 6.1982997,9.6250704 4.87443726,9.6250704" id="Fill-8" fill="#0F67B1" fill-rule="nonzero"></path>
            <path d="M10.340708,12.6478169 C10.3360894,12.6352817 10.3267809,12.6248591 10.3143459,12.6195775 C10.3019109,12.613662 10.2880548,12.6133099 10.2754067,12.6180986 C10.0535668,12.6990845 9.63759932,12.7654226 9.34868162,12.7654226 C8.7147113,12.7654226 8.41293237,12.5960563 8.41293237,11.6325352 C8.41293237,10.8621831 8.50537747,10.4997887 9.34868162,10.4997887 C9.58743308,10.4997887 9.80977034,10.5342958 10.0913691,10.6148591 C10.1141784,10.6211267 10.1387641,10.6110563 10.1502043,10.5902817 C10.2557239,10.3940845 10.3827027,10.154507 10.5260957,9.86063378 C10.532704,9.84781687 10.5329882,9.83225355 10.5269483,9.8190141 C10.5211927,9.80605635 10.5098236,9.79549298 10.4961097,9.79098593 C10.1227763,9.67359157 9.68044666,9.60563377 9.28174596,9.60563377 C7.95454384,9.60563377 7.36292348,10.2263381 7.36292348,11.6178873 C7.36292348,13.03 7.95454384,13.6593662 9.28174596,13.6593662 C9.61443469,13.6593662 10.2699353,13.5902113 10.5862099,13.4648591 C10.6116483,13.4549296 10.6243674,13.4270422 10.614988,13.4009859 L10.340708,12.6478169" id="Fill-9" fill="#0F67B1"></path>
            <path d="M2.77150616,9.73359158 L0.0805786066,9.73359158 C0.0525821596,9.73359158 0.0299149854,9.75619718 0.0299149854,9.78415492 L0.0299149854,13.4824648 C0.0299149854,13.51 0.0525821596,13.5325352 0.0805786066,13.5325352 L0.989255173,13.5325352 C1.01746479,13.5325352 1.04020302,13.51 1.04020302,13.4824648 L1.04020302,10.6188733 L2.44542571,10.6188733 C2.46581906,10.6188733 2.48379647,10.6069014 2.49189696,10.5885916 C2.5986956,10.3385211 2.70876285,10.0740141 2.81847481,9.8028873 C2.82486993,9.78746483 2.82288034,9.76971832 2.81342977,9.75640845 C2.80405025,9.7423944 2.78855982,9.73359158 2.77150616,9.73359158" id="Fill-10" fill="#0F67B1"></path>
            <path d="M27.3185637,18.7286619 C27.3198426,18.7102113 27.3212638,18.6916197 27.322685,18.6728169 C27.3250299,18.6397887 27.3273748,18.6061973 27.3297197,18.5719719 C27.3658876,18.0555635 27.4029793,17.4116901 27.4277071,16.6907747 C27.4284177,16.6713381 27.4290573,16.6518311 27.4296256,16.632324 C27.4460398,16.1376057 27.4563431,15.607817 27.4563431,15.0588732 C27.4563431,14.5098592 27.4460398,13.9801409 27.4296256,13.4853521 C27.4290573,13.4658451 27.4284177,13.446338 27.4277071,13.4269718 C27.4029793,12.7060564 27.3658876,12.0621831 27.3297197,11.5457747 C27.3273748,11.5115493 27.3250299,11.4779578 27.322685,11.4449296 C27.3212638,11.4261268 27.3198426,11.4074648 27.3185637,11.3891549 C27.3147265,11.3364085 27.3108894,11.2852817 27.3071235,11.2357043 C27.3054892,11.2144366 27.3039259,11.1935211 27.3022916,11.1728873 C27.2600838,10.6270423 27.2246974,10.2905634 27.2210734,10.2560564 C27.2153888,10.2032394 27.2087805,10.1499295 27.2012485,10.096338 C27.19933,10.0832394 27.1969141,10.07 27.1949245,10.056831 C27.1807842,9.9624648 27.1641569,9.86711265 27.1441187,9.77077463 C27.1412765,9.75718313 27.1379368,9.74330985 27.1349524,9.72971827 C26.8890242,8.58830985 26.2490141,7.33542254 25.4521102,6.38732394 C25.1448598,6.02169014 24.8143027,5.70133803 24.474153,5.45021127 C24.440401,5.42528169 24.0478112,5.13619719 23.4160437,4.70492958 C22.6904809,4.20929577 21.6494963,3.52605635 20.4744271,2.83971831 C18.381373,1.61852112 16.5088085,0.764366198 16.2627383,0.653309859 C16.262525,0.653239437 16.2623119,0.653098592 16.2620987,0.65302817 C16.261175,0.652676057 16.2603934,0.652323944 16.2594695,0.651901409 C16.2492374,0.647253521 16.2420606,0.644014085 16.2385078,0.642464789 L16.2384367,0.642464789 C16.2382946,0.642394367 16.2380815,0.642253521 16.2380103,0.642253521 C15.6876741,0.39640845 15.0124908,0.232112676 14.284441,0.162042254 C14.1454536,0.14859155 14.0048319,0.138380282 13.8624337,0.131971831 C13.735597,0.126267606 13.6075524,0.123380282 13.4787971,0.123380282 C13.4144195,0.123380282 13.350184,0.12415493 13.2862327,0.12556338 C12.3268925,0.147042254 11.4217688,0.32859155 10.7196549,0.642253521 C10.7188733,0.642605634 10.7175942,0.643169015 10.7164573,0.643661972 C10.6048978,0.693661973 8.70895571,1.54760564 6.56033498,2.7952817 L6.56196929,2.7952817 C6.53574927,2.81049295 6.50960031,2.82570423 6.48338028,2.84105634 C4.28537495,4.12366197 2.55620353,5.39661972 2.48365437,5.45021127 C1.94326608,5.84915493 1.46284989,6.35260563 1.0257074,7.00549296 C0.929069915,7.14971831 0.919903562,7.51929577 1.35200102,7.51929577 L2.44009643,7.51929577 C2.9094988,7.51929577 3.02027662,7.23633803 3.5449613,6.86197183 C4.13160767,6.44352113 5.27335109,5.59021126 7.38473798,4.35809859 C8.90557035,3.47042253 10.3295521,2.77309859 11.0180941,2.44753521 C11.0199416,2.44661972 11.021718,2.44577465 11.0235656,2.44492958 C11.0360005,2.43908451 11.0482223,2.43330986 11.0601599,2.42767605 C11.0654891,2.42514084 11.0708184,2.42260563 11.0760766,2.42021127 C11.0830402,2.41690142 11.0900038,2.41359155 11.0967542,2.41042254 C11.1082654,2.405 11.1195635,2.39971832 11.1305773,2.39457747 C11.1310037,2.3943662 11.13143,2.39415494 11.1318564,2.39394366 C11.1441492,2.38816902 11.1560868,2.38260564 11.1677401,2.3771831 C11.1678823,2.37711267 11.1679533,2.37704226 11.1680954,2.37697184 C11.3450983,2.29429578 11.4455018,2.24915493 11.4497652,2.24725352 C11.9342317,2.03084507 12.6145312,1.9009155 13.3343383,1.88549297 C13.3823018,1.88450705 13.4304783,1.88394366 13.4787971,1.88394366 C13.5271159,1.88394366 13.5752214,1.88450705 13.6232559,1.88549297 C13.8359295,1.89007043 14.044908,1.905 14.2466388,1.92880281 C14.682147,1.98021128 15.0831214,2.07443663 15.4083491,2.20507043 C15.4422434,2.21866197 15.4753559,2.23267605 15.5076158,2.24711268 C15.5093922,2.24788733 15.5273696,2.25598592 15.5598426,2.27077466 C15.8816596,2.41753521 17.6540338,3.2378169 19.5729273,4.35802816 C20.7037279,5.01781691 21.7195584,5.68535211 22.4220277,6.16507043 C23.0314832,6.5815493 23.405243,6.85669014 23.4132013,6.8625352 C23.6832179,7.06183098 23.952737,7.33732395 24.203497,7.65704227 C24.8444309,8.47429575 25.3628625,9.58014083 25.4543839,10.4406338 C25.4553076,10.449155 25.491831,10.7978873 25.5352467,11.3716901 C25.5381601,11.4095071 25.5410025,11.4482394 25.5439157,11.4879578 C25.5459053,11.5148591 25.547895,11.5421127 25.5498135,11.5698592 C25.5534373,11.6194367 25.5569902,11.6704226 25.5606141,11.722676 C25.5619642,11.7428873 25.5633854,11.7631691 25.5647354,11.783662 C25.5670093,11.8180282 25.5694252,11.8528873 25.5716991,11.8882394 C25.5762466,11.9569014 25.5806521,12.0273239 25.5850577,12.0996479 C25.5877579,12.1435211 25.5905292,12.1880282 25.5931583,12.2332394 C25.5937266,12.2441549 25.5943662,12.2551409 25.5950768,12.2661268 C25.59799,12.317324 25.6009745,12.3692254 25.6038879,12.4220423 C25.6058774,12.458662 25.6079381,12.4957042 25.6099277,12.5330986 C25.6489379,13.2671127 25.6799188,14.1395071 25.6799188,15.0588732 C25.6799188,15.978169 25.6489379,16.8506339 25.6099277,17.5846479 C25.6079381,17.6219718 25.6058774,17.6590845 25.6038879,17.6957043 C25.6009745,17.7484508 25.59799,17.8004226 25.5950768,17.8515494 C25.5943662,17.8625352 25.5937266,17.8735916 25.5931583,17.8844366 C25.5905292,17.9296479 25.5877579,17.974155 25.5850577,18.0180282 C25.5806521,18.0904226 25.5762466,18.160845 25.5716991,18.2294366 C25.5694252,18.2647887 25.5670093,18.2997183 25.5647354,18.3340845 C25.5633854,18.3545775 25.5619642,18.3748592 25.5606141,18.395 C25.5569902,18.447324 25.5534373,18.4983099 25.5498135,18.5478873 C25.547895,18.5755634 25.5459053,18.6028873 25.5439157,18.6297888 C25.5410025,18.6694367 25.5381601,18.7082394 25.5352467,18.7459859 C25.491831,19.3198591 25.4553076,19.6685916 25.4543839,19.6771127 C25.3628625,20.5376056 24.8444309,21.6434506 24.203497,22.4607042 C23.952737,22.7803521 23.6832179,23.0559155 23.4132013,23.2552113 C23.405243,23.2610564 23.0314832,23.5361972 22.4220277,23.9526057 C21.7195584,24.4323944 20.7037279,25.0998591 19.5729273,25.7597183 C17.6540338,26.8799297 15.8816596,27.7002113 15.5598426,27.8469014 C15.5273696,27.8617605 15.5093922,27.8698592 15.5076158,27.8706338 C15.4753559,27.8850704 15.4422434,27.8990141 15.4083491,27.9126057 C15.0831214,28.0432395 14.682147,28.1375352 14.2466388,28.1889437 C14.044908,28.2127466 13.8359295,28.2276761 13.6232559,28.2321831 C13.5752214,28.2332394 13.5271159,28.2337325 13.4787971,28.2337325 C13.4304783,28.2337325 13.3823018,28.2332394 13.3343383,28.2321831 C12.6145312,28.2168311 11.9342317,28.0869014 11.4497652,27.8704929 C11.4455018,27.8685915 11.3450273,27.8234507 11.1680954,27.7407042 C11.1661769,27.7397888 11.1642584,27.7389437 11.1623398,27.7380282 C11.1437229,27.7292958 11.1243954,27.7202112 11.1040731,27.7107042 C11.1020124,27.7097888 11.0998096,27.7087325 11.097749,27.7077465 C11.0823296,27.700493 11.0661997,27.6928874 11.0498566,27.6852113 C11.0414008,27.6811973 11.032874,27.6771831 11.024134,27.6730281 C11.0112016,27.6669014 10.9977008,27.6604929 10.9841289,27.6540845 C10.9670042,27.645986 10.9494531,27.6376761 10.9314046,27.6290846 C10.9275676,27.6272535 10.9237305,27.6254226 10.9198934,27.6235916 C10.2001573,27.2809859 8.83664509,26.6070423 7.38473798,25.7596479 C5.27335109,24.5275352 4.13160767,23.6742254 3.5449613,23.2557042 C3.02027662,22.8814085 2.9094988,22.5984507 2.44009643,22.5984507 L1.35200102,22.5984507 C0.919903562,22.5984507 0.929069915,22.9679577 1.0257074,23.1122535 C1.46284989,23.7650705 1.94326608,24.2685915 2.48365437,24.6675353 C2.55620353,24.7211268 4.28537495,25.9940846 6.48338028,27.2766902 C6.60069534,27.3451409 6.71715773,27.4123239 6.83276741,27.4783803 L6.83120416,27.4783803 C8.86485471,28.6401408 10.6076691,29.4252818 10.7163152,29.4739437 C10.7175231,29.4745071 10.7188733,29.4750704 10.7196549,29.4754929 C11.4217688,29.7891549 12.3268925,29.9707043 13.2862327,29.9921831 C13.350184,29.9935916 13.4144195,29.9942958 13.4787971,29.9942958 C13.6075524,29.9942958 13.735597,29.9914085 13.8624337,29.9857746 C14.0048319,29.9793662 14.1454536,29.9690141 14.284441,29.9557043 C15.0124908,29.8856339 15.6876741,29.7213381 16.2380103,29.4754929 C16.2380815,29.4754929 16.2382946,29.4753521 16.2384367,29.4752817 L16.2385078,29.4752817 C16.2420606,29.473662 16.2492374,29.470493 16.2594695,29.4658451 C16.2603934,29.4654225 16.261175,29.4650705 16.2620987,29.4646479 C16.2623119,29.4645774 16.262525,29.4644366 16.2627383,29.4643662 C16.5088085,29.3533803 18.381373,28.4991549 20.4744271,27.2780282 C21.6494963,26.5916901 22.6904809,25.9084508 23.4160437,25.4128169 C24.0478112,24.9815493 24.440401,24.6924648 24.474153,24.6675353 C24.8143027,24.4163381 25.1448598,24.0960564 25.4521102,23.7304226 C26.2490141,22.782324 26.8890242,21.5294365 27.1349524,20.3880282 C27.1379368,20.3743662 27.1412765,20.3605634 27.1441187,20.3469719 C27.1641569,20.2506338 27.1807842,20.1552818 27.1949245,20.0608451 C27.1969141,20.0477465 27.19933,20.034507 27.2012485,20.0214084 C27.2087805,19.9678169 27.2153888,19.914507 27.2210734,19.8616902 C27.2246974,19.8271832 27.2600838,19.4907042 27.3022916,18.9447888 C27.3039259,18.9242253 27.3054892,18.9032394 27.3071235,18.8820423 C27.3108894,18.8324648 27.3147265,18.781338 27.3185637,18.7286619" id="Fill-11" fill="url(#linearGradient-1)"></path>
        </g>
    </g>
</svg>